<svg xmlns="http://www.w3.org/2000/svg" xmlns:xlink="http://www.w3.org/1999/xlink" version="1.1" x="0px" y="0px" viewBox="0 0 100 105" fill="#FFFFFF" enable-background="new 0 0 100 100" xml:space="preserve"><g><g>
    <path d="M80.505,72.526v-9.6c0-0.555-0.45-1.005-1.005-1.005h-3c-0.555,0-1.005,0.45-1.005,1.005v9.6    c0,0.555,0.45,1.005,1.005,1.005h3C80.055,73.531,80.505,73.081,80.505,72.526z M78.495,71.521h-0.989v-7.59h0.989V71.521z     M79.5,51.395h-3c-0.555,0-1.005,0.45-1.005,1.005v4.547c0,0.555,0.45,1.005,1.005,1.005h3c0.555,0,1.005-0.45,1.005-1.005v-4.547    C80.505,51.845,80.055,51.395,79.5,51.395z M78.495,55.941h-0.989v-2.537h0.989V55.941z M20.5,61.922    c-0.555,0-1.005,0.45-1.005,1.005v9.6c0,0.555,0.45,1.005,1.005,1.005h3c0.555,0,1.005-0.45,1.005-1.005v-9.6    c0-0.555-0.45-1.005-1.005-1.005H20.5z M22.495,71.521h-0.989v-7.59h0.989V71.521z M23.5,51.395h-3    c-0.555,0-1.005,0.45-1.005,1.005v4.547c0,0.555,0.45,1.005,1.005,1.005h3c0.555,0,1.005-0.45,1.005-1.005v-4.547    C24.505,51.845,24.055,51.395,23.5,51.395z M22.495,55.941h-0.989v-2.537h0.989V55.941z M1.5,62.004c-1.372,0-1.372,2.01,0,2.01    h11.67v11.46c-1.31,0.007-1.309,2.001,0,2.008v1.022H1.5c-1.327,0-1.327,2.01,0,2.01h11.67v0.578c0,1.341,2.011,1.341,2.011,0    v-3.609h4.949c1.305,0,1.305-2.01,0-2.01h-4.949v-14.49h14.563v3.954c0,1.323,2.011,1.323,2.011,0v-7.49h7.929    c1.31,0,1.31-2.01,0-2.01h-7.929v-8.094h10.822v5.085c0,1.338,2.011,1.338,2.011,0v-5.085h10.823v5.085    c0,1.338,2.011,1.338,2.011,0v-5.085h10.823v8.094h-7.929c-1.319,0-1.319,2.01,0,2.01h7.929v7.49c0,1.324,2.011,1.324,2.011,0    v-3.954h14.563v14.49H80.87c-1.345,0-1.345,2.01,0,2.01h3.949v3.609c0,1.341,2.011,1.341,2.011,0v-0.578H98.5    c1.327,0,1.327-2.01,0-2.01H86.83v-1.022c1.309-0.007,1.309-2.001,0-2.008v-11.46H98.5c1.348,0,1.348-2.01,0-2.01H86.83v-1.022    c1.33-0.007,1.33-2.001,0-2.008v-5.569H98.5c1.309,0,1.309-2.01,0-2.01H86.83v-1.021c1.292-0.007,1.289-2.01-0.005-2.01h-0.883    c-1.841-2.56-4.732-4.079-7.904-4.079c-3.073,0-5.933,1.461-7.782,3.914v-1.613l3.686-7.031H98.5c1.348,0,1.348-2.011,0-2.011    H73.333c-0.374,0-0.717,0.208-0.89,0.539l-2.188,4.173V27.008c0,0,1.008,0,1.015,0c1.224,0,1.329-1.678,0.271-1.974l-1.286-0.542    v-2.699c0-0.555-0.45-1.005-1.005-1.005h-0.995V10.425c0-0.555-0.45-1.005-1.005-1.005h-3.333c-0.555,0-1.005,0.45-1.005,1.005    v1.159c-1.123-0.777-2.384-1.36-3.732-1.727V5.496c0-0.555-0.45-1.005-1.005-1.005h-7.168V1.5c0-1.327-2.011-1.327-2.011,0v2.991    h-7.168c-0.555,0-1.005,0.45-1.005,1.005v4.361c-1.348,0.367-2.609,0.95-3.732,1.727v-1.159c0-0.555-0.45-1.005-1.005-1.005H32.75    c-0.555,0-1.005,0.45-1.005,1.005v10.362H30.75c-0.555,0-1.005,0.45-1.005,1.005v2.699l-1.385,0.584    c-1.012,0.427-0.704,1.932,0.391,1.932h0.995v15.247l-2.188-4.173c-0.173-0.331-0.516-0.539-0.89-0.539H1.5    c-1.328,0-1.328,2.011,0,2.011h24.559l3.686,7.031v1.613c-1.849-2.452-4.709-3.914-7.782-3.914c-3.172,0-6.063,1.519-7.904,4.079    h-0.883c-1.334,0-1.337,2.003-0.005,2.01v1.021H1.5c-1.331,0-1.331,2.01,0,2.01h11.67v5.569c-1.331,0.007-1.332,2.001,0,2.008    v1.022H1.5z M78.037,46.295c1.987,0,3.837,0.753,5.25,2.068H72.785C74.205,47.048,76.068,46.295,78.037,46.295z M70.255,57.445    c1.299-0.007,1.299-2.001,0-2.008v-5.063h14.563v8.599H70.255V57.445z M55.411,45.332H44.588v-1.273h10.823V45.332z     M48.255,42.048v-8.467c0-2.325,3.489-2.325,3.489,0v8.467H48.255z M55.411,42.048h-1.656v-8.467c0-5.071-7.511-5.071-7.511,0    v8.467h-1.656l0-15.04h10.822V42.048z M33.717,24.997L50,18.126l16.283,6.871H33.717z M68.245,45.332H57.422v-1.273h10.823V45.332    z M61.088,42.048v-8.467c0-2.356,3.489-2.356,3.489,0v8.467H61.088z M68.245,42.048h-1.656v-8.467c0-5.009-7.511-5.009-7.511,0    v8.467h-1.656v-15.04h10.823V42.048z M68.245,22.798v0.845l-2.003-0.845H68.245z M64.922,11.431h1.323v3.59    c-0.391-0.601-0.836-1.162-1.323-1.684V11.431z M42.832,6.501h14.337v2.978c-0.385-0.037-13.952-0.037-14.337,0V6.501z M44,11.431    h12c5.313,0,9.692,4.113,10.194,9.356h-4.718l-11.086-4.678c-0.249-0.105-0.532-0.105-0.781,0l-11.086,4.678h-4.718    C34.308,15.543,38.687,11.431,44,11.431z M33.755,11.431h1.323v1.906c-0.486,0.522-0.932,1.083-1.323,1.684V11.431z     M31.755,22.798h2.003l-2.003,0.845V22.798z M31.755,27.008h10.823l0,15.04h-1.656v-8.467c0-5.009-7.511-5.009-7.511,0v8.467    h-1.656V27.008z M38.911,33.581v8.467h-3.489v-8.467C35.422,31.255,38.911,31.255,38.911,33.581z M31.755,44.059h10.822v1.273    H31.755V44.059z M21.963,46.295c1.969,0,3.833,0.753,5.252,2.068H16.712C18.126,47.048,19.976,46.295,21.963,46.295z     M15.181,50.374h14.563v5.063c-1.32,0.007-1.32,2.001,0,2.008v1.527H15.181V50.374z M99.092,97.673l-48.39-47.168    c-0.391-0.381-1.013-0.381-1.403,0L0.799,97.78c-0.735,0.716-0.07,1.725,0.702,1.725h97c0.007-0.001,0.013-0.001,0.02,0    C99.415,99.505,99.973,98.284,99.092,97.673z M81.492,83.325l-6.36,6.199l-6.634-6.443l6.372-6.211L81.492,83.325z M73.43,75.467    l-6.374,6.213l-7.877-7.649l6.389-6.228L73.43,75.467z M48.56,81.574l-7.862,7.664l-6.313-6.154l7.877-7.649L48.56,81.574z     M43.704,74.033l6.297-6.115l6.296,6.114L50,80.17L43.704,74.033z M50,82.978l6.832,6.659H43.169L50,82.978z M51.44,81.574    l6.299-6.141l7.876,7.65l-6.313,6.154L51.44,81.574z M64.128,66.399l-6.392,6.229l-6.293-6.111l6.415-6.229L64.128,66.399z     M50,52.628l6.418,6.257l-6.417,6.231l-6.418-6.233L50,52.628z M42.144,60.286l6.416,6.231l-6.294,6.112l-6.392-6.231    L42.144,60.286z M34.433,67.803l6.39,6.229l-7.877,7.649l-6.375-6.214L34.433,67.803z M25.13,76.87l6.372,6.212l-6.634,6.442    l-6.36-6.199L25.13,76.87z M3.972,97.495l5.313-5.179l5.313,5.179H3.972z M10.725,90.912l6.344-6.184l6.357,6.197l-6.356,6.172    L10.725,90.912z M19.545,97.495l5.32-5.166l5.3,5.166H19.545z M26.308,90.928l6.634-6.442l6.316,6.156l-6.622,6.455L26.308,90.928    z M35.107,97.495l6-5.849h17.787l6,5.849H35.107z M60.743,90.642l6.316-6.157l6.634,6.443l-6.329,6.169L60.743,90.642z     M69.835,97.495l5.301-5.167l5.319,5.167H69.835z M76.575,90.926l6.357-6.197l6.343,6.184l-6.345,6.186L76.575,90.926z     M85.403,97.495l5.313-5.179l5.313,5.179H85.403z"/></g></g></svg>