<svg xmlns="http://www.w3.org/2000/svg" xmlns:xlink="http://www.w3.org/1999/xlink" version="1.1" x="0px" y="0px" viewBox="0 0 100 125" fill="#FFFFFF" style="enable-background:new 0 0 100 100;" xml:space="preserve"><style type="text/css">
	.st0{fill:none;stroke:#000000;stroke-width:0.5669;stroke-miterlimit:10;}
	.st1{fill:none;stroke:#000000;stroke-width:1.4173;stroke-miterlimit:10;}
	.st2{fill:none;stroke:#000000;stroke-miterlimit:10;}
	.st3{fill:#FFFFFF;stroke:#000000;stroke-width:1.4173;stroke-miterlimit:10;}
</style><path d="M96.7,70L50,23.3L3.3,70h37.9l-6.8,6.8h31.1L58.8,70H96.7z M57.4,68.6L56,67.2l0.9-0.9l2.4,2.4H57.4z M53.3,69.4l0.2,2.9  l-2.9-2.9v-2.7L53.3,69.4z M50.6,66v-2.1l2.4,2.4l0.2,2.3L50.6,66z M52.5,63.7l0.9-0.9l3.1,3.1l-0.9,0.9L52.5,63.7z M22.7,58.9  l3.1-3.1l3.1,3.1l-3.1,3.1L22.7,58.9z M25.4,62.3l-3.1,3.1l-3.1-3.1l3.1-3.1L25.4,62.3z M74.2,61.9l-3.1-3.1l3.1-3.1l3.1,3.1  L74.2,61.9z M77.7,59.3l3.1,3.1l-3.1,3.1l-3.1-3.1L77.7,59.3z M36.6,52l3.1-3.1l3.1,3.1L39.6,55L36.6,52z M39.2,55.4l-3.1,3.1  l-3.1-3.1l3.1-3.1L39.2,55.4z M60.4,55L57.3,52l3.1-3.1l3.1,3.1L60.4,55z M63.8,52.4l3.1,3.1l-3.1,3.1l-3.1-3.1L63.8,52.4z   M56.9,51.6l-3.1-3.1l3.1-3.1l3.1,3.1L56.9,51.6z M53.5,48.1L50.4,45l3.1-3.1l3.1,3.1L53.5,48.1z M50,44.6l-3.1-3.1l3.1-3.1l3.1,3.1  L50,44.6z M49.6,45l-3.1,3.1L43.5,45l3.1-3.1L49.6,45z M46.1,48.5l-3.1,3.1L40,48.5l3.1-3.1L46.1,48.5z M43.1,52.4l3.1,3.1l-3.1,3.1  L40,55.4L43.1,52.4z M43.5,52l3.1-3.1l3.1,3.1L46.5,55L43.5,52z M46.9,48.5l3.1-3.1l3.1,3.1L50,51.6L46.9,48.5z M53.5,48.9l3.1,3.1  L53.5,55L50.4,52L53.5,48.9z M56.9,52.4l3.1,3.1l-3.1,3.1l-3.1-3.1L56.9,52.4z M60,62.3l-3.1,3.1l-3.1-3.1l3.1-3.1L60,62.3z   M57.3,58.9l3.1-3.1l3.1,3.1l-3.1,3.1L57.3,58.9z M63.8,59.3l3.1,3.1l-3.1,3.1l-3.1-3.1L63.8,59.3z M64.2,58.9l3.1-3.1l3.1,3.1  l-3.1,3.1L64.2,58.9z M70.8,59.3l3.1,3.1l-3.1,3.1l-3.1-3.1L70.8,59.3z M70.8,58.5l-3.1-3.1l3.1-3.1l3.1,3.1L70.8,58.5z M67.3,55  L64.2,52l3.1-3.1l3.1,3.1L67.3,55z M63.8,51.6l-3.1-3.1l3.1-3.1l3.1,3.1L63.8,51.6z M60.4,48.1L57.3,45l3.1-3.1l3.1,3.1L60.4,48.1z   M56.9,44.6l-3.1-3.1l3.1-3.1l3.1,3.1L56.9,44.6z M53.5,41.2l-3.1-3.1l3.1-3.1l3.1,3.1L53.5,41.2z M50,37.7l-3.1-3.1l3.1-3.1  l3.1,3.1L50,37.7z M49.6,38.1l-3.1,3.1l-3.1-3.1l3.1-3.1L49.6,38.1z M46.1,41.6l-3.1,3.1L40,41.6l3.1-3.1L46.1,41.6z M42.7,45  l-3.1,3.1L36.6,45l3.1-3.1L42.7,45z M39.2,48.5l-3.1,3.1l-3.1-3.1l3.1-3.1L39.2,48.5z M35.8,52L32.7,55L29.6,52l3.1-3.1L35.8,52z   M32.3,55.4l-3.1,3.1l-3.1-3.1l3.1-3.1L32.3,55.4z M29.2,59.3l3.1,3.1l-3.1,3.1l-3.1-3.1L29.2,59.3z M29.6,58.9l3.1-3.1l3.1,3.1  l-3.1,3.1L29.6,58.9z M36.2,59.3l3.1,3.1l-3.1,3.1l-3.1-3.1L36.2,59.3z M36.6,58.9l3.1-3.1l3.1,3.1l-3.1,3.1L36.6,58.9z M43.1,59.3  l3.1,3.1l-3.1,3.1L40,62.3L43.1,59.3z M46.5,62.7l0.9,0.9l-3.1,3.1l-0.9-0.9L46.5,62.7z M43.5,58.9l3.1-3.1l3.1,3.1l-3.1,3.1  L43.5,58.9z M46.9,55.4l3.1-3.1l3.1,3.1L50,58.5L46.9,55.4z M53.5,55.8l3.1,3.1l-3.1,3.1l-3.1-3.1L53.5,55.8z M60.1,68.6l-2.8-2.8  l3.1-3.1l3.1,3.1l-2.8,2.8H60.1z M61.5,68.6l2.4-2.4l2.4,2.4H61.5z M67,68.6l-2.8-2.8l3.1-3.1l3.1,3.1l-2.8,2.8H67z M68.4,68.6  l2.4-2.4l2.4,2.4H68.4z M73.9,68.6l-2.8-2.8l3.1-3.1l3.1,3.1l-2.8,2.8H73.9z M75.3,68.6l2.4-2.4l2.4,2.4H75.3z M80.8,68.6l-2.8-2.8  l3.1-3.1l3.1,3.1l-2.8,2.8H80.8z M82.3,68.6l2.4-2.4l2.4,2.4H82.3z M93.3,68.6h-4.1l2.1-2.1L93.3,68.6z M90.8,66.1l-2.5,2.5h-0.6  L85,65.8l2.8-2.8L90.8,66.1z M87.4,62.6l-2.8,2.8l-3.1-3.1l2.8-2.8L87.4,62.6z M83.9,59.2l-2.8,2.8l-3.1-3.1l2.8-2.8L83.9,59.2z   M80.5,55.7l-2.8,2.8l-3.1-3.1l2.8-2.8L80.5,55.7z M77,52.3L74.2,55L71.2,52l2.8-2.8L77,52.3z M73.5,48.8l-2.8,2.8l-3.1-3.1l2.8-2.8  L73.5,48.8z M70.1,45.3l-2.8,2.8L64.2,45l2.8-2.8L70.1,45.3z M66.6,41.9l-2.8,2.8l-3.1-3.1l2.8-2.8L66.6,41.9z M63.1,38.4l-2.8,2.8  l-3.1-3.1l2.8-2.8L63.1,38.4z M59.7,35l-2.8,2.8l-3.1-3.1l2.8-2.8L59.7,35z M56.2,31.5l-2.8,2.8l-3.1-3.1l2.8-2.8L56.2,31.5z   M50,25.3l2.8,2.8L50,30.8L47.2,28L50,25.3z M46.8,28.4l2.8,2.8l-3.1,3.1l-2.8-2.8L46.8,28.4z M43.4,31.9l2.8,2.8l-3.1,3.1L40.3,35  L43.4,31.9z M39.9,35.4l2.8,2.8l-3.1,3.1l-2.8-2.8L39.9,35.4z M36.5,38.8l2.8,2.8l-3.1,3.1l-2.8-2.8L36.5,38.8z M33,42.3l2.8,2.8  l-3.1,3.1l-2.8-2.8L33,42.3z M29.5,45.7l2.8,2.8l-3.1,3.1l-2.8-2.8L29.5,45.7z M26.1,49.2l2.8,2.8L25.8,55L23,52.3L26.1,49.2z   M22.6,52.7l2.8,2.8l-3.1,3.1l-2.8-2.8L22.6,52.7z M19.1,56.1l2.8,2.8l-3.1,3.1l-2.8-2.8L19.1,56.1z M15.7,59.6l2.8,2.8l-3.1,3.1  l-2.8-2.8L15.7,59.6z M6.7,68.6l2.1-2.1l2.1,2.1H6.7z M11.6,68.6l-2.5-2.5l3.1-3.1l2.8,2.8l-2.8,2.8H11.6z M13,68.6l2.4-2.4l2.4,2.4  H13z M18.5,68.6l-2.8-2.8l3.1-3.1l3.1,3.1l-2.8,2.8H18.5z M20,68.6l2.4-2.4l2.4,2.4H20z M25.5,68.6l-2.8-2.8l3.1-3.1l3.1,3.1  l-2.8,2.8H25.5z M26.9,68.6l2.4-2.4l2.4,2.4H26.9z M32.4,68.6l-2.8-2.8l3.1-3.1l3.1,3.1L33,68.6H32.4z M33.8,68.6l2.4-2.4l2.4,2.4  H33.8z M39.3,68.6l-2.8-2.8l3.1-3.1l3.1,3.1l-2.8,2.8H39.3z M40.7,68.6l2.4-2.4l0.9,0.9l-1.4,1.4H40.7z M38.7,75.3h-0.8l1.1-1.1  L38.7,75.3z M42.1,75.3h-1.5l1.6-1.6L42.1,75.3z M42.4,72.8l-2.5,2.5h-0.6l0.5-1.9l2.9-2.9L42.4,72.8z M45.5,75.3h-1.4l1.6-1.6  L45.5,75.3z M45.7,72.9l-2.4,2.4h-0.6l0.3-2.3l3-3L45.7,72.9z M43,72.1l0.2-2.2l2.9-2.9L46,69.1L43,72.1z M49.2,75.3h-1.6l1.6-1.6  V75.3z M49.2,72.9l-2.4,2.4h-0.6l0.2-2.2l2.9-2.9V72.9z M49.2,69.4l-2.9,2.9l0.2-2.9l2.6-2.6V69.4z M49.2,65.9l-2.6,2.6l0.2-2.1  l2.4-2.4V65.9z M47.9,63.3l-0.9-0.9l3.1-3.1l3.1,3.1l-0.9,0.9L50,61.2L47.9,63.3z M50.6,75.3v-1.6l1.6,1.6H50.6z M53.1,75.3  l-2.4-2.4v-2.7l2.9,2.9l0.2,2.2H53.1z M53.6,66.8l2.9,2.9l0.3,2.4l-3-3L53.6,66.8z M54.3,75.3l-0.1-1.6l1.6,1.6H54.3z M56.5,75.3  l-2.4-2.4L53.9,70l3,3l0.3,2.3H56.5z M57.7,75.3l-0.2-1.6l1.6,1.6H57.7z M62.1,75.3h-1L60.8,74L62.1,75.3z M60,73.2l0.5,2.1H60  l-2.5-2.5l-0.3-2.4L60,73.2z"/></svg>