<svg xmlns="http://www.w3.org/2000/svg" xmlns:xlink="http://www.w3.org/1999/xlink" version="1.1" x="0px" y="0px" viewBox="0 0 64 60" fill="#FFFFFF" style="enable-background:new 0 0 64 64;" xml:space="preserve"><path d="M61.471,49L32,13.433L2.529,49H1v2h62v-2H61.471z M39.623,36.358l4.568-5.076l4.619,5.575L44.459,42L39.623,36.358z   M42.683,43h-9.038l4.629-5.144L42.683,43z M38.311,34.827L33.317,29l4.568-5.33l5.017,6.055L38.311,34.827z M36.962,36.325  L32,41.839l-4.962-5.513L32,30.536L36.962,36.325z M30.355,43h-9.038l4.409-5.144L30.355,43z M25.689,34.827l-4.591-5.101  l5.017-6.055L30.683,29L25.689,34.827z M24.377,36.358L19.541,42l-4.352-5.143l4.619-5.575L24.377,36.358z M18.222,43.538L13.54,49  h-1.126l-3.985-3.985l5.463-6.594L18.222,43.538z M19.53,45.084L22.844,49h-6.67L19.53,45.084z M25.464,49l-3.385-4h7.075l-3.6,4  H25.464z M31.845,45h0.31l3.6,4h-7.51L31.845,45z M38.445,49l-3.6-4h7.075l-3.385,4H38.445z M44.47,45.084L47.826,49h-6.67  L44.47,45.084z M45.778,43.538l4.329-5.117l5.463,6.594L51.586,49H50.46L45.778,43.538z M56.852,46.562L58.872,49h-4.458  L56.852,46.562z M36.591,22.108L32,27.464l-4.591-5.356L32,16.567L36.591,22.108z M7.148,46.562L9.586,49H5.128L7.148,46.562z"/></svg>